<svg width="31" height="31" viewBox="0 0 31 31" fill="none" xmlns="http://www.w3.org/2000/svg">
<path d="M0 15.5C0 6.93959 6.93959 0 15.5 0V0C24.0604 0 31 6.93959 31 15.5V15.5C31 24.0604 24.0604 31 15.5 31V31C6.93959 31 0 24.0604 0 15.5V15.5Z" fill="#3E92CC"/>
<g clip-path="url(#clip0_2_496)">
<path d="M18.9625 16.8078L19.3758 14.1429H16.7919V12.4136C16.7919 11.6845 17.1528 10.9739 18.3101 10.9739H19.4848V8.70503C19.4848 8.70503 18.4188 8.52499 17.3996 8.52499C15.2716 8.52499 13.8807 9.80135 13.8807 12.1119V14.1429H11.5153V16.8078H13.8807V23.25H16.7919V16.8078H18.9625Z" fill="white"/>
</g>
<defs>
<clipPath id="clip0_2_496">
<rect width="9.3" height="14.725" fill="white" transform="translate(10.85 8.52499)"/>
</clipPath>
</defs>
</svg>
