<svg width="31" height="31" viewBox="0 0 31 31" fill="none" xmlns="http://www.w3.org/2000/svg">
<path d="M0 15.5C0 6.93959 6.93959 0 15.5 0V0C24.0604 0 31 6.93959 31 15.5V15.5C31 24.0604 24.0604 31 15.5 31V31C6.93959 31 0 24.0604 0 15.5V15.5Z" fill="#D8315B"/>
<path d="M17.88 13.192C17.624 12.7227 17.272 12.3653 16.824 12.12C16.376 11.8747 15.8533 11.752 15.256 11.752C14.5947 11.752 14.008 11.9013 13.496 12.2C12.984 12.4987 12.584 12.9253 12.296 13.48C12.008 14.0347 11.864 14.6747 11.864 15.4C11.864 16.1467 12.008 16.7973 12.296 17.352C12.5947 17.9067 13.0053 18.3333 13.528 18.632C14.0507 18.9307 14.6587 19.08 15.352 19.08C16.2053 19.08 16.904 18.856 17.448 18.408C17.992 17.9493 18.3493 17.3147 18.52 16.504H14.68V14.792H20.728V16.744C20.5787 17.5227 20.2587 18.2427 19.768 18.904C19.2773 19.5653 18.6427 20.0987 17.864 20.504C17.096 20.8987 16.232 21.096 15.272 21.096C14.1947 21.096 13.2187 20.856 12.344 20.376C11.48 19.8853 10.7973 19.208 10.296 18.344C9.80533 17.48 9.56 16.4987 9.56 15.4C9.56 14.3013 9.80533 13.32 10.296 12.456C10.7973 11.5813 11.48 10.904 12.344 10.424C13.2187 9.93333 14.1893 9.688 15.256 9.688C16.5147 9.688 17.608 9.99733 18.536 10.616C19.464 11.224 20.104 12.0827 20.456 13.192H17.88Z" fill="white"/>
</svg>
