<svg width="166" height="58" viewBox="0 0 166 58" fill="none" xmlns="http://www.w3.org/2000/svg">
<path d="M90.36 44.56H99.56V49H84.76V21.08H90.36V44.56ZM135.759 21.08V49H130.159V30.84L122.679 49H118.439L110.919 30.84V49H105.319V21.08H111.679L120.559 41.84L129.439 21.08H135.759ZM153.136 49.28C151.189 49.28 149.429 48.9467 147.856 48.28C146.309 47.6133 145.083 46.6533 144.176 45.4C143.269 44.1467 142.803 42.6667 142.776 40.96H148.776C148.856 42.1067 149.256 43.0133 149.976 43.68C150.723 44.3467 151.736 44.68 153.016 44.68C154.323 44.68 155.349 44.3733 156.096 43.76C156.843 43.12 157.216 42.2933 157.216 41.28C157.216 40.4533 156.963 39.7733 156.456 39.24C155.949 38.7067 155.309 38.2933 154.536 38C153.789 37.68 152.749 37.3333 151.416 36.96C149.603 36.4267 148.123 35.9067 146.976 35.4C145.856 34.8667 144.883 34.08 144.056 33.04C143.256 31.9733 142.856 30.56 142.856 28.8C142.856 27.1467 143.269 25.7067 144.096 24.48C144.923 23.2533 146.083 22.32 147.576 21.68C149.069 21.0133 150.776 20.68 152.696 20.68C155.576 20.68 157.909 21.3867 159.696 22.8C161.509 24.1867 162.509 26.1333 162.696 28.64H156.536C156.483 27.68 156.069 26.8933 155.296 26.28C154.549 25.64 153.549 25.32 152.296 25.32C151.203 25.32 150.323 25.6 149.656 26.16C149.016 26.72 148.696 27.5333 148.696 28.6C148.696 29.3467 148.936 29.9733 149.416 30.48C149.923 30.96 150.536 31.36 151.256 31.68C152.003 31.9733 153.043 32.32 154.376 32.72C156.189 33.2533 157.669 33.7867 158.816 34.32C159.963 34.8533 160.949 35.6533 161.776 36.72C162.603 37.7867 163.016 39.1867 163.016 40.92C163.016 42.4133 162.629 43.8 161.856 45.08C161.083 46.36 159.949 47.3867 158.456 48.16C156.963 48.9067 155.189 49.28 153.136 49.28Z" fill="#3E92CC"/>
<path d="M41.0833 43.5C41.0833 40.2953 39.8103 37.2218 37.5442 34.9558C35.2781 32.6897 32.2047 31.4167 29 31.4167C25.7953 31.4167 22.7219 32.6897 20.4558 34.9558C18.1897 37.2218 16.9167 40.2953 16.9167 43.5" stroke="#0A2463" stroke-width="4" stroke-linecap="round" stroke-linejoin="round"/>
<path d="M29 4.83334V21.75" stroke="#D8315B" stroke-width="4" stroke-linecap="round" stroke-linejoin="round"/>
<path d="M10.1983 24.6983L13.63 28.13" stroke="#0A2463" stroke-width="4" stroke-linecap="round" stroke-linejoin="round"/>
<path d="M2.41667 43.5H7.25" stroke="#0A2463" stroke-width="4" stroke-linecap="round" stroke-linejoin="round"/>
<path d="M50.75 43.5H55.5833" stroke="#0A2463" stroke-width="4" stroke-linecap="round" stroke-linejoin="round"/>
<path d="M44.37 28.13L47.8017 24.6983" stroke="#0A2463" stroke-width="4" stroke-linecap="round" stroke-linejoin="round"/>
<path d="M55.5833 53.1667H2.41667" stroke="#0A2463" stroke-width="4" stroke-linecap="round" stroke-linejoin="round"/>
<path d="M19.3333 14.5L29 4.83334L38.6667 14.5" stroke="#D8315B" stroke-width="4" stroke-linecap="round" stroke-linejoin="round"/>
</svg>
