<svg width="149" height="148" viewBox="0 0 149 148" fill="none" xmlns="http://www.w3.org/2000/svg">
<g clip-path="url(#clip0_109_9021)">
<path d="M56.1186 0H0.974609V55.144H56.1186V0ZM46.928 45.9533H10.1653V9.19067H46.928V45.9533Z" fill="#F2F8F9"/>
<path d="M19.3559 18.3813H37.7373V36.7627H19.3559V18.3813ZM0.974609 147.051H56.1186V91.9067H0.974609V147.051ZM10.1653 101.097H46.928V137.86H10.1653V101.097Z" fill="#F2F8F9"/>
<path d="M19.3564 110.288H37.7378V128.669H19.3564V110.288ZM92.8818 0V55.144H148.026V0H92.8818ZM138.835 45.9533H102.072V9.19067H138.835V45.9533Z" fill="#F2F8F9"/>
<path d="M111.263 18.3813H129.644V36.7627H111.263V18.3813ZM19.3559 64.3347H0.974609V82.716H28.5466V73.5254H19.3559V64.3347ZM65.3093 82.716H83.6906V101.097H65.3093V82.716ZM28.5466 64.3347H46.928V73.5254H28.5466V64.3347ZM83.6906 110.288H65.3093V119.479H74.5V128.669H83.6906V119.479V110.288ZM56.1186 64.3347V73.5254H46.928V82.716H65.3093V64.3347H56.1186ZM74.5 36.7627H83.6906V55.144H74.5V36.7627ZM83.6906 73.5254V82.716H102.072V64.3347H74.5V73.5254H83.6906ZM65.3093 55.144H74.5V64.3347H65.3093V55.144ZM83.6906 128.669H102.072V147.051H83.6906V128.669ZM65.3093 128.669H74.5V147.051H65.3093V128.669ZM83.6906 101.097H92.8813V110.288H83.6906V101.097ZM83.6906 27.572V9.19067H74.5V0H65.3093V36.7627H74.5V27.572H83.6906ZM111.263 128.669H120.453V147.051H111.263V128.669ZM111.263 110.288H129.644V119.479H111.263V110.288ZM102.072 119.479H111.263V128.669H102.072V119.479ZM92.8813 110.288H102.072V119.479H92.8813V110.288ZM129.644 91.9067V101.097H138.835V110.288H148.025V91.9067H138.835H129.644ZM138.835 119.479H129.644V147.051H148.025V128.669H138.835V119.479ZM92.8813 91.9067V101.097H120.453V82.716H102.072V91.9067H92.8813ZM111.263 64.3347V73.5254H129.644V82.716H148.025V64.3347H129.644H111.263Z" fill="#F2F8F9"/>
</g>
<defs>
<clipPath id="clip0_109_9021">
<rect width="147.051" height="147.051" fill="white" transform="translate(0.974609)"/>
</clipPath>
</defs>
</svg>
