<svg width="15" height="14" viewBox="0 0 15 14" fill="none" xmlns="http://www.w3.org/2000/svg">
<path d="M4.16634 3.66659V0.999919C4.16634 0.823108 4.23658 0.653538 4.3616 0.528514C4.48663 0.40349 4.6562 0.333252 4.83301 0.333252H13.4997C13.6765 0.333252 13.8461 0.40349 13.9711 0.528514C14.0961 0.653538 14.1663 0.823108 14.1663 0.999919V9.66659C14.1663 9.8434 14.0961 10.013 13.9711 10.138C13.8461 10.263 13.6765 10.3333 13.4997 10.3333H10.833V12.9953C10.833 13.3659 10.5337 13.6666 10.1617 13.6666H1.50434C1.41616 13.6667 1.32882 13.6494 1.24733 13.6157C1.16584 13.582 1.0918 13.5325 1.02944 13.4702C0.967085 13.4078 0.917638 13.3338 0.883932 13.2523C0.850225 13.1708 0.83292 13.0834 0.833008 12.9953L0.835008 4.33792C0.835008 3.96725 1.13434 3.66659 1.50634 3.66659H4.16634ZM5.49967 3.66659H10.1617C10.5323 3.66659 10.833 3.96592 10.833 4.33792V8.99992H12.833V1.66659H5.49967V3.66659ZM2.16834 4.99992L2.16634 12.3333H9.49967V4.99992H2.16834Z" fill="white"/>
</svg>
