<svg width="29" height="29" viewBox="0 0 29 29" fill="none" xmlns="http://www.w3.org/2000/svg">
<path d="M12.6289 14.2722L14.2714 15.9153L19.6428 10.5438" stroke="#5B7B83" stroke-width="1.22343" stroke-linecap="round" stroke-linejoin="round"/>
<path d="M12.307 17.8796L6.18987 23.9967C6.1034 23.7342 6.05942 23.4596 6.05957 23.1832V5.36147C6.05957 4.67554 6.33206 4.01769 6.81709 3.53266C7.30212 3.04763 7.95996 2.77515 8.6459 2.77515H19.3815C19.7891 2.77515 20.1927 2.85543 20.5693 3.01141C20.9458 3.16739 21.288 3.39602 21.5762 3.68424C21.8644 3.97246 22.0931 4.31462 22.2491 4.6912C22.405 5.06777 22.4853 5.47138 22.4853 5.87898V23.1838C22.4853 23.5235 22.4184 23.8598 22.2884 24.1737C22.1584 24.4875 21.9678 24.7726 21.7276 25.0128C21.4874 25.253 21.2022 25.4435 20.8883 25.5734C20.5745 25.7033 20.2381 25.7702 19.8984 25.7701H8.64529" stroke="#5B7B83" stroke-width="1.22343" stroke-linecap="round" stroke-linejoin="round"/>
<path d="M18.2483 15.2976C18.1939 15.5087 18.1227 15.7151 18.0354 15.9148C17.7103 16.6584 17.172 17.2889 16.4887 17.7267C15.8053 18.1645 15.0075 18.3899 14.1961 18.3744C13.3847 18.3588 12.5961 18.1032 11.93 17.6396C11.2638 17.176 10.7501 16.5254 10.4536 15.7699C10.1571 15.0144 10.0913 14.188 10.2643 13.3951C10.4374 12.6023 10.8417 11.8785 11.426 11.3153C12.0103 10.752 12.7484 10.3747 13.5471 10.2309C14.3459 10.087 15.1693 10.1832 15.9133 10.5072" stroke="#013C44" stroke-width="1.22343" stroke-linecap="round" stroke-linejoin="round"/>
<path d="M13.1631 5.23474H15.3793" stroke="#5B7B83" stroke-width="1.22343" stroke-linecap="round" stroke-linejoin="round"/>
</svg>
