<svg width="43" height="42" viewBox="0 0 43 42" fill="none" xmlns="http://www.w3.org/2000/svg">
<circle cx="21.5" cy="21" r="21" fill="#D9EDF1"/>
<path d="M28.5 12.2888C28.5 12.1283 28.3589 12 28.1826 12H25.6312C25.4548 12 25.3137 12.1283 25.3137 12.2888V17.6043C24.0322 16.7807 22.4684 16.3102 20.7754 16.3636C16.9072 16.4706 13.6974 19.3155 13.5093 22.8235C13.2977 26.7487 16.7308 30 20.9988 30C21.7865 30 22.5625 29.8824 23.2797 29.6791C23.3855 29.6578 23.4796 29.6257 23.5736 29.5829C23.5736 29.5829 23.5736 29.5829 23.5854 29.5829C24.1145 29.3476 24.4907 28.8663 24.4907 28.2888C24.4907 27.4973 23.7853 26.8556 22.9152 26.8556C22.7741 26.8556 22.633 26.877 22.5037 26.9091H22.492C22.4332 26.9305 22.3626 26.9519 22.3038 26.9626H22.2921C21.81 27.1016 21.2927 27.1551 20.7636 27.1337C18.5415 27.016 16.7191 25.3262 16.6485 23.2941C16.578 21.0588 18.5532 19.2086 20.9988 19.2086C23.1856 19.2086 24.9963 20.6845 25.302 22.5989V22.6096C25.3255 22.7914 25.349 22.9733 25.349 23.1658C25.349 23.1658 25.349 23.1658 25.349 23.1765C25.349 23.4973 25.302 23.8075 25.2314 24.107C25.2197 24.1604 25.1962 24.2246 25.1844 24.2781C25.1727 24.2995 25.1491 24.4278 25.1374 24.4599V24.4706C25.0668 25.1658 25.5606 25.8289 26.3131 26C27.1361 26.1818 27.9004 25.7754 28.1826 25.1444C28.2296 25.0481 28.3119 24.6952 28.3236 24.631C28.4412 24.1604 28.5 23.6791 28.5 23.1872C28.5 23.1765 28.5 23.1658 28.5 23.1658V12.2888Z" fill="#00839B"/>
</svg>
