<svg width="33" height="33" viewBox="0 0 33 33" fill="none" xmlns="http://www.w3.org/2000/svg">
<path d="M32.812 13.1494H0.65918V16.9964H32.812V13.1494Z" fill="#D9EDF1"/>
<path fill-rule="evenodd" clip-rule="evenodd" d="M16.3753 14.5245C16.5149 14.5702 16.661 14.593 16.8079 14.5918C17.2684 14.5958 17.7028 14.3779 17.9751 14.0063C18.2475 13.6347 18.3246 13.1546 18.1824 12.7164C17.7114 11.2256 15.2699 3.71418 13.4916 1.9349C11.2891 -0.099234 7.87436 -0.0308521 5.75487 2.08985C3.63538 4.21056 3.56703 7.6272 5.60002 9.83105C7.38789 11.6103 14.8854 14.0532 16.3753 14.5245ZM7.04266 4.84648C7.46334 3.83838 8.44922 3.18284 9.54102 3.1852C10.2515 3.1877 10.9322 3.47119 11.4346 3.97386C12.0883 4.62787 13.3667 7.67668 14.5009 10.8601C11.3193 9.71563 8.27221 8.4461 7.61858 7.79209C6.84927 7.01691 6.62199 5.85456 7.04266 4.84648Z" fill="#D9EDF1"/>
<path fill-rule="evenodd" clip-rule="evenodd" d="M15.6406 14.0065C15.9129 14.3781 16.3473 14.596 16.8078 14.5921C16.9578 14.5933 17.1071 14.5705 17.25 14.5247C18.7399 14.0535 26.247 11.6106 28.0253 9.8313C29.5306 8.44106 30.1544 6.33782 29.6507 4.35099C29.1469 2.36423 27.5965 0.812874 25.6108 0.308825C23.6251 -0.195219 21.523 0.428955 20.1336 1.93516C18.3169 3.71444 15.9043 11.2259 15.4333 12.7166C15.2911 13.1549 15.3682 13.6349 15.6406 14.0065ZM22.1522 3.97412C22.6605 3.46252 23.3537 3.17811 24.0747 3.18547H24.0576C25.1447 3.18783 26.125 3.84228 26.5442 4.84674C26.9648 5.85482 26.7376 7.01716 25.9683 7.79235C25.3146 8.44635 22.2676 9.73513 19.0859 10.8604C20.2298 7.67694 21.4986 4.62813 22.1522 3.97412Z" fill="#D9EDF1"/>
<path d="M30.0343 19.882H18.1729V32.6735H30.0343V19.882Z" fill="#D9EDF1"/>
<path d="M3.54282 19.882H3.5332V32.6735H15.2889V19.882H3.54282Z" fill="#013A45"/>
</svg>
