<svg width="29" height="30" viewBox="0 0 29 30" fill="none" xmlns="http://www.w3.org/2000/svg">
<path fill-rule="evenodd" clip-rule="evenodd" d="M1.88568 22.7577H27.1707C27.5896 22.7577 27.9664 22.4925 28.0831 22.0997C28.1998 21.7076 28.0476 21.2929 27.6975 21.0724C27.6309 21.0249 26.7185 20.3563 25.8148 18.6802C24.9408 17.0594 23.8987 14.1454 23.8987 9.46884C23.8995 7.23406 23.0675 5.08011 21.5566 3.40332C19.9006 1.56629 17.6135 0.470884 15.1155 0.317031C12.6176 0.163886 10.208 0.97144 8.33104 2.5908C7.94116 2.92758 7.90347 3.50967 8.2477 3.89182C8.59193 4.27326 9.18689 4.31013 9.5775 3.97336C11.0776 2.67943 13.0024 2.03423 14.9981 2.15689C16.9932 2.27884 18.8209 3.15446 20.1434 4.62209C21.3507 5.9614 22.0153 7.68215 22.0146 9.46813C22.0146 15.5861 23.6792 19.0886 25.014 20.9143H4.04235C5.37794 19.0886 7.04327 15.5854 7.04327 9.46813C7.04327 8.95906 6.6215 8.54642 6.10118 8.54642C5.58086 8.54642 5.15909 8.95906 5.15909 9.46813C5.15909 14.1433 4.11699 17.0573 3.24229 18.6788C2.33861 20.3549 1.42551 21.0242 1.35884 21.0717C1.00881 21.2922 0.856629 21.7069 0.973303 22.099C1.08998 22.4925 1.46681 22.7577 1.88568 22.7577ZM11.6844 28.5049C12.294 29.368 13.399 29.8501 14.5337 29.8501C15.0932 29.8501 15.6603 29.7327 16.1778 29.4859C16.6718 29.25 17.0846 28.9109 17.3716 28.5049C17.6002 28.1809 17.4662 27.7655 17.0719 27.5777C16.6776 27.3898 16.1721 27.4999 15.9435 27.8239C15.8006 28.0264 15.5949 28.195 15.3491 28.3124C14.5687 28.6844 13.5653 28.4652 13.1126 27.8239C12.884 27.4999 12.3785 27.3898 11.9842 27.5777C11.5898 27.7655 11.4558 28.1809 11.6844 28.5049Z" fill="#013C44"/>
</svg>
