<svg width="26" height="25" viewBox="0 0 26 25" fill="none" xmlns="http://www.w3.org/2000/svg">
<path d="M12.7967 5.59106C12.7072 5.59146 12.6215 5.62718 12.5582 5.69045C12.4949 5.75372 12.4592 5.83943 12.4588 5.9289V7.14513H11.2441C11.1545 7.14513 11.0686 7.18072 11.0052 7.24408C10.9418 7.30744 10.9062 7.39337 10.9062 7.48297C10.9062 7.57257 10.9418 7.6585 11.0052 7.72186C11.0686 7.78522 11.1545 7.82081 11.2441 7.82081H12.4588V9.03703C12.4588 9.12664 12.4944 9.21257 12.5578 9.27592C12.6211 9.33928 12.7071 9.37487 12.7967 9.37487C12.8863 9.37487 12.9722 9.33928 13.0355 9.27592C13.0989 9.21257 13.1345 9.12664 13.1345 9.03703V7.82231H14.3492C14.4388 7.82231 14.5247 7.78672 14.5881 7.72336C14.6515 7.66 14.6871 7.57407 14.6871 7.48447C14.6871 7.39487 14.6515 7.30894 14.5881 7.24558C14.5247 7.18223 14.4388 7.14663 14.3492 7.14663H13.136V5.93041C13.136 5.84041 13.1002 5.75409 13.0366 5.69046C12.973 5.62682 12.8867 5.59106 12.7967 5.59106Z" fill="#5B7B83"/>
<path d="M3.36115 22.2223H22.2322C22.4102 22.2223 22.5809 22.1515 22.7068 22.0257C22.8326 21.8998 22.9033 21.7291 22.9033 21.5511V3.61701C22.9037 3.52882 22.8867 3.44141 22.8532 3.35982C22.8197 3.27822 22.7705 3.20404 22.7083 3.14154C22.646 3.07904 22.5721 3.02944 22.4906 2.9956C22.4092 2.96176 22.3219 2.94434 22.2337 2.94434H17.3042C17.2146 2.94434 17.1287 2.97993 17.0653 3.04329C17.0019 3.10664 16.9664 3.19258 16.9664 3.28218C16.9664 3.37178 17.0019 3.45771 17.0653 3.52106C17.1287 3.58442 17.2146 3.62002 17.3042 3.62002H22.2277V21.5511L3.35965 21.5586V3.62752H8.30263C8.39223 3.62752 8.47816 3.59193 8.54152 3.52857C8.60488 3.46522 8.64047 3.37928 8.64047 3.28968C8.64047 3.20008 8.60488 3.11415 8.54152 3.05079C8.47816 2.98744 8.39223 2.95184 8.30263 2.95184H3.36115C3.18301 2.95184 3.01214 3.02251 2.88603 3.14833C2.75992 3.27416 2.68887 3.44487 2.68848 3.62302V21.5526C2.68927 21.7305 2.76049 21.9008 2.88656 22.0263C3.01262 22.1518 3.18327 22.2223 3.36115 22.2223Z" fill="#5B7B83"/>
<path d="M10.0502 4.66328H15.5383C16.0713 4.66328 16.5052 4.1858 16.5052 3.60171V3.32243C16.5052 2.73835 16.0713 2.26086 15.5383 2.26086H10.0502C9.51719 2.26086 9.08325 2.73684 9.08325 3.32243V3.60021C9.08325 4.17679 9.5262 4.66328 10.0502 4.66328ZM9.76043 3.32243C9.76043 3.11372 9.89257 2.93654 10.0502 2.93654H15.5383C15.6959 2.93654 15.828 3.11372 15.828 3.32243V3.60171C15.836 3.69031 15.8107 3.77868 15.7572 3.84971C15.7036 3.92073 15.6256 3.96934 15.5383 3.9861H10.0502C9.96287 3.96934 9.88486 3.92073 9.83132 3.84971C9.77777 3.77868 9.75251 3.69031 9.76043 3.60171V3.32243Z" fill="#5B7B83"/>
<path d="M6.72435 10.0121C6.4617 10.0118 6.20486 10.0894 5.98635 10.2352C5.76784 10.3809 5.59748 10.5882 5.49683 10.8308C5.39618 11.0734 5.36977 11.3404 5.42094 11.598C5.47211 11.8556 5.59855 12.0923 5.78428 12.278C5.97 12.4637 6.20664 12.5902 6.46426 12.6413C6.72188 12.6925 6.98889 12.6661 7.23149 12.5654C7.47409 12.4648 7.68137 12.2944 7.82711 12.0759C7.97285 11.8574 8.05048 11.6006 8.05018 11.3379C8.04978 10.9864 7.90997 10.6494 7.66141 10.4009C7.41286 10.1523 7.07586 10.0125 6.72435 10.0121ZM6.72435 11.9896C6.5954 11.9899 6.46926 11.9519 6.3619 11.8805C6.25454 11.8091 6.17078 11.7074 6.12122 11.5883C6.07167 11.4693 6.05855 11.3382 6.08353 11.2117C6.1085 11.0852 6.17045 10.969 6.26152 10.8777C6.3526 10.7864 6.46871 10.7242 6.59516 10.6989C6.72161 10.6736 6.85271 10.6864 6.97187 10.7357C7.09104 10.785 7.1929 10.8685 7.26457 10.9757C7.33624 11.0829 7.3745 11.209 7.3745 11.3379C7.3745 11.5105 7.30605 11.676 7.18417 11.7982C7.06228 11.9203 6.89692 11.9892 6.72435 11.9896Z" fill="#5B7B83"/>
<path d="M6.72452 13.4503C6.46229 13.4503 6.20596 13.5281 5.98792 13.6738C5.76989 13.8194 5.59995 14.0265 5.49961 14.2688C5.39926 14.511 5.373 14.7776 5.42416 15.0348C5.47532 15.292 5.60159 15.5282 5.78701 15.7137C5.97243 15.8991 6.20867 16.0254 6.46586 16.0765C6.72305 16.1277 6.98963 16.1014 7.23189 16.0011C7.47416 15.9007 7.68122 15.7308 7.82691 15.5127C7.97259 15.2947 8.05035 15.0384 8.05035 14.7762C8.04996 14.4246 7.91014 14.0876 7.66159 13.8391C7.41303 13.5905 7.07603 13.4507 6.72452 13.4503ZM6.72452 15.4263C6.59593 15.4263 6.47023 15.3882 6.36331 15.3167C6.25639 15.2453 6.17306 15.1438 6.12385 15.025C6.07464 14.9062 6.06177 14.7754 6.08686 14.6493C6.11194 14.5232 6.17386 14.4074 6.26479 14.3164C6.35571 14.2255 6.47156 14.1636 6.59768 14.1385C6.7238 14.1134 6.85452 14.1263 6.97332 14.1755C7.09212 14.2247 7.19366 14.308 7.2651 14.4149C7.33654 14.5219 7.37467 14.6476 7.37467 14.7762C7.37467 14.8615 7.35786 14.9461 7.32518 15.025C7.29251 15.1038 7.24462 15.1755 7.18425 15.2359C7.12387 15.2963 7.0522 15.3441 6.97332 15.3768C6.89444 15.4095 6.8099 15.4263 6.72452 15.4263Z" fill="#5B7B83"/>
<path d="M6.72435 16.887C6.4617 16.8867 6.20486 16.9643 5.98635 17.11C5.76784 17.2558 5.59748 17.4631 5.49683 17.7057C5.39618 17.9483 5.36977 18.2153 5.42094 18.4729C5.47211 18.7305 5.59855 18.9671 5.78428 19.1529C5.97 19.3386 6.20664 19.465 6.46426 19.5162C6.72188 19.5674 6.98889 19.541 7.23149 19.4403C7.47409 19.3397 7.68137 19.1693 7.82711 18.9508C7.97285 18.7323 8.05048 18.4754 8.05018 18.2128C8.04978 17.8613 7.90997 17.5243 7.66141 17.2757C7.41286 17.0272 7.07586 16.8874 6.72435 16.887ZM6.72435 18.863C6.59576 18.863 6.47006 18.8248 6.36314 18.7534C6.25622 18.6819 6.17289 18.5804 6.12368 18.4616C6.07447 18.3428 6.0616 18.2121 6.08668 18.086C6.11177 17.9598 6.17369 17.844 6.26462 17.7531C6.35554 17.6621 6.47139 17.6002 6.59751 17.5751C6.72362 17.5501 6.85435 17.5629 6.97315 17.6121C7.09195 17.6613 7.19349 17.7447 7.26493 17.8516C7.33637 17.9585 7.3745 18.0842 7.3745 18.2128C7.3745 18.3852 7.306 18.5506 7.18407 18.6725C7.06215 18.7945 6.89678 18.863 6.72435 18.863Z" fill="#5B7B83"/>
<path d="M19.8566 10.9967H9.62983C9.54023 10.9967 9.4543 11.0323 9.39094 11.0957C9.32759 11.159 9.29199 11.2449 9.29199 11.3345C9.29199 11.4241 9.32759 11.5101 9.39094 11.5734C9.4543 11.6368 9.54023 11.6724 9.62983 11.6724H19.8566C19.9462 11.6724 20.0322 11.6368 20.0955 11.5734C20.1589 11.5101 20.1945 11.4241 20.1945 11.3345C20.1945 11.2449 20.1589 11.159 20.0955 11.0957C20.0322 11.0323 19.9462 10.9967 19.8566 10.9967Z" fill="#5B7B83"/>
<path d="M19.8566 14.4385H9.62983C9.54023 14.4385 9.4543 14.4741 9.39094 14.5374C9.32759 14.6008 9.29199 14.6867 9.29199 14.7763C9.29199 14.8659 9.32759 14.9518 9.39094 15.0152C9.4543 15.0786 9.54023 15.1142 9.62983 15.1142H19.8566C19.9462 15.1142 20.0322 15.0786 20.0955 15.0152C20.1589 14.9518 20.1945 14.8659 20.1945 14.7763C20.1945 14.6867 20.1589 14.6008 20.0955 14.5374C20.0322 14.4741 19.9462 14.4385 19.8566 14.4385Z" fill="#5B7B83"/>
<path d="M19.8566 17.8751H9.62983C9.54023 17.8751 9.4543 17.9107 9.39094 17.9741C9.32759 18.0374 9.29199 18.1234 9.29199 18.213C9.29199 18.3026 9.32759 18.3885 9.39094 18.4519C9.4543 18.5152 9.54023 18.5508 9.62983 18.5508H19.8566C19.9462 18.5508 20.0322 18.5152 20.0955 18.4519C20.1589 18.3885 20.1945 18.3026 20.1945 18.213C20.1945 18.1234 20.1589 18.0374 20.0955 17.9741C20.0322 17.9107 19.9462 17.8751 19.8566 17.8751Z" fill="#5B7B83"/>
</svg>
