<svg width="26" height="26" viewBox="0 0 26 26" fill="none" xmlns="http://www.w3.org/2000/svg">
<path d="M13 25C19.6274 25 25 19.6274 25 13C25 6.37258 19.6274 1 13 1C6.37258 1 1 6.37258 1 13C1 19.6274 6.37258 25 13 25Z" stroke="#5B7B83" stroke-width="1.00362" stroke-miterlimit="10" stroke-linecap="round"/>
<path d="M12.0916 12.014C13.8075 12.014 15.1986 10.623 15.1986 8.90702C15.1986 7.19109 13.8075 5.80005 12.0916 5.80005C10.3757 5.80005 8.98462 7.19109 8.98462 8.90702C8.98462 10.623 10.3757 12.014 12.0916 12.014Z" stroke="#5B7B83" stroke-width="0.602172" stroke-miterlimit="10"/>
<path d="M5.43091 19.6701C5.43091 15.998 8.40774 13.02 12.081 13.02C15.7543 13.02 18.7311 15.9969 18.7311 19.6701" stroke="#5B7B83" stroke-width="0.602172" stroke-miterlimit="10" stroke-linecap="round"/>
<path d="M16.446 16.9594H13.8232" stroke="#013C44" stroke-width="0.602172" stroke-miterlimit="10" stroke-linecap="round"/>
<path d="M15.1353 18.2713V15.6486" stroke="#013C44" stroke-width="0.602172" stroke-miterlimit="10" stroke-linecap="round"/>
<path d="M17.1809 7.78381H16.495C16.298 7.78381 16.1362 7.94561 16.1362 8.14258V9.63627C16.1362 9.83325 16.298 9.99504 16.495 9.99504H16.998V10.7794C16.998 10.8275 17.0519 10.858 17.0929 10.8322L18.4354 9.99504H19.3265C19.5234 9.99504 19.6852 9.83325 19.6852 9.63627V9.25406" stroke="#5B7B83" stroke-width="0.602172" stroke-miterlimit="10"/>
<path d="M20.9107 9.31731H17.554C17.3266 9.31731 17.1401 9.13089 17.1401 8.90344V6.96539C17.1401 6.73793 17.3266 6.55151 17.554 6.55151H20.9107C21.1382 6.55151 21.3246 6.73793 21.3246 6.96539V8.90461C21.3246 9.13206 21.1382 9.31731 20.9107 9.31731Z" stroke="#5B7B83" stroke-width="0.602172" stroke-miterlimit="10"/>
</svg>
