<svg width="69" height="64" viewBox="0 0 69 64" fill="none" xmlns="http://www.w3.org/2000/svg">
<path d="M11.5421 36.8621C11.5421 36.8621 3.66503 43.2101 8.2877 48.7527C12.9104 54.2953 17.6651 63.9987 35.0992 55.5149C52.5333 47.0311 70.6277 51.2824 59.6654 29.3453C48.7031 7.40823 39.6558 -0.252198 32.4247 8.99314C25.1935 18.2385 20.0796 37.2592 11.5421 36.8621Z" fill="#153F3F"/>
<path d="M15.6233 40.8022L17.2064 51.742C19.6052 53.6242 22.7841 52.452 23.7825 51.6288C24.7808 50.8056 23.7825 49.7695 23.7825 49.7695C22.5345 49.3332 22.2018 47.5073 22.2018 47.5073L21.1925 40.5994L15.6233 40.8022Z" fill="#F38D02"/>
<path d="M21.7576 44.4673C21.7576 44.4673 18.0929 41.5112 15.9301 42.9227L15.6233 40.8022L21.1925 40.5994L21.7576 44.4673Z" fill="#E2640E"/>
<path d="M14.3303 29.208L20.0228 28.1032C20.3883 28.0236 20.7648 28.0074 21.1358 28.0554C21.0213 28.0628 16.8483 28.3741 17.7662 34.656C17.7662 34.656 18.497 40.2551 22.5768 40.5822L16.4276 41.284C11.8577 41.1862 11.3123 35.7187 11.3123 35.7187C10.6333 30.6184 14.3303 29.208 14.3303 29.208Z" fill="#F38D02"/>
<path d="M17.7662 34.656C16.8483 28.3741 21.0213 28.0628 21.1358 28.0554C21.6609 28.1179 22.159 28.3222 22.5768 28.6463C22.5768 28.6463 26.0625 34.8835 24.5861 38.9508C24.2624 39.843 22.5768 40.5822 22.5768 40.5822C18.497 40.2551 17.7662 34.656 17.7662 34.656Z" fill="#E2640E"/>
<path d="M44.9541 16.7743C44.9541 16.7743 42.5385 16.6975 40.1462 18.5389C37.7538 20.3803 29.3105 26.2673 29.3105 26.2673C29.3105 26.2673 26.0739 27.878 21.1486 28.6323L21.2105 28.6353C21.2105 28.6353 18.2046 29.844 18.799 34.763C18.799 34.763 19.3393 38.7325 21.2105 38.8325L23.2199 38.9398L26.4961 39.1045C26.4961 39.1045 38.5982 41.2767 42.8199 43.1047C44.6384 43.8921 47.4486 43.9068 48.2928 42.7633C49.1371 41.6197 47.6044 27.0627 47.6044 27.0627L44.9541 16.7743Z" fill="white"/>
<path d="M42.2494 30.3269C42.9601 37.5961 45.3233 43.3143 47.5279 43.0988C49.7323 42.8833 50.9432 36.8157 50.2326 29.5463C49.5219 22.277 47.1586 16.5588 44.9542 16.7743C42.7497 16.9898 41.5388 23.0575 42.2494 30.3269Z" fill="white"/>
<path d="M42.6071 30.5036C43.2688 37.2718 45.3752 42.6051 47.3119 42.4157C49.2485 42.2264 50.2819 36.5861 49.6203 29.8179C48.9586 23.0497 46.8522 17.7164 44.9157 17.9057C42.979 18.0951 41.9455 23.7353 42.6071 30.5036Z" fill="#AABCBB"/>
<path d="M42.4837 30.683C43.0007 35.9706 44.3415 40.0486 45.1029 40.4326C46.4602 41.1172 48.3857 35.435 47.8689 30.1473C47.3519 24.8597 44.5468 20.8474 43.0267 20.8372C42.3676 24.0752 42.1846 27.3921 42.4837 30.683Z" fill="#6C8280"/>
<path d="M42.2647 25.381C42.2647 25.381 45.6083 25.7282 46.1139 30.1608L46.241 32.0531C46.241 32.0531 46.2067 35.2997 43.4579 35.7205C43.4579 35.7205 42.0459 35.5357 42.2647 25.381Z" fill="#F38D02"/>
<path d="M42.403 25.381C42.403 25.381 41.5337 30.093 43.2881 35.7205C43.2881 35.7205 44.2414 35.8337 45.4719 34.4854C45.4719 34.4854 42.692 29.2559 42.403 25.381Z" fill="#E2640E"/>
<path d="M18.8202 31.8128C18.8202 31.8128 20.0534 37.7571 27.3373 39.2599C27.3373 39.2599 21.8861 39.0578 21.2104 38.8325C21.2104 38.8325 17.9373 38.4122 18.8202 31.8128Z" fill="#AABCBB"/>
<path d="M25.0477 15.9167C25.0477 15.9167 30.5057 7.07426 24.4302 7.73463C18.3547 8.39502 1.44891 8.57453 5.67535 21.4283C5.67535 21.4283 7.72715 30.5259 12.0503 27.319C12.0503 27.319 18.8816 23.1351 19.5427 22.3028L25.7719 24.7232L22.1139 20.8449C22.1139 20.8449 24.2123 17.4416 25.0477 15.9167Z" fill="white"/>
<path d="M12.8343 13.3721C12.8343 13.3721 11.3531 14.9823 11.4354 18.3006C11.4354 18.3006 11.7645 19.6945 10.5302 19.9161C9.29596 20.1377 9.37825 22.3948 11.6823 22.3772C13.9863 22.3595 14.1586 18.5113 16.9743 19.577C19.7901 20.6426 19.0916 15.5737 18.6514 14.7854C18.2112 13.997 14.8091 10.0625 12.8343 13.3721Z" fill="#36505B"/>
<path d="M13.3649 14.1864C13.3649 14.1864 11.2772 15.8398 12.4219 20.3244C12.4219 20.3244 13.2454 22.2303 11.682 22.3772C11.682 22.3772 12.6058 22.6286 14.0776 20.6426L13.3649 14.1864ZM18.2109 16.3289C18.2109 16.3289 19.5351 17.3506 16.8379 19.5286L16.0634 19.3907L17.2167 16.3289" fill="#263E44"/>
<path d="M12.5497 15.7065C12.5497 15.7065 11.5624 21.9835 15.0729 20.1994C15.0729 20.1994 16.3517 19.6438 16.9739 17.7131C16.9739 17.7131 17.0476 19.0495 17.8155 17.8548C17.8155 17.8548 18.9125 16.3199 17.8155 16.106H17.2165C17.2165 16.106 17.6266 13.2711 15.3624 13.3749C15.3624 13.3749 13.2079 13.2172 12.5497 15.7065Z" fill="#F2C386"/>
<path d="M12.8339 13.3721C12.8339 13.3721 14.9339 17.176 17.2165 16.106C17.2165 16.106 18.1237 15.9067 18.2108 16.3289C18.2108 16.3289 19.4734 15.7558 18.2108 13.997C16.9482 12.2382 14.0682 10.4739 12.8339 13.3721Z" fill="#36505B"/>
<path d="M13.0643 14.552C13.0643 14.552 13.9934 17.7181 16.9742 16.2018C16.9742 16.2018 15.1829 16.7591 13.3179 14.1864L13.0643 14.552Z" fill="#E0865A"/>
<path d="M14.0636 20.5149L14.0778 22.3773C14.0778 22.3773 16.0124 22.2065 17.2168 20.8289L16.9742 17.7131C16.9742 17.7131 14.0559 19.4881 14.0636 20.5149Z" fill="#F2C386"/>
<path d="M16.9742 17.7131C16.9742 17.7131 16.4001 20.146 14.0636 20.5149L14.0778 21.4036C14.0778 21.4036 16.9005 21.1247 16.9742 17.7131Z" fill="#E0865A"/>
<path d="M50.4358 17.0628C50.4358 17.0628 56.4743 7.01171 56.1235 12.7119C56.1235 12.7119 55.4473 16.0644 50.4358 17.0628ZM51.376 19.308C51.376 19.308 60.9599 12.5523 58.3366 17.6251C58.3366 17.6251 56.3638 20.4188 51.376 19.308ZM52.0993 21.9299C52.0993 21.9299 61.093 19.6071 57.7287 22.6318C57.7287 22.6318 55.4845 24.1497 52.0993 21.9299Z" fill="#F38D02"/>
</svg>
