<svg width="20" height="21" viewBox="0 0 20 21" fill="none" xmlns="http://www.w3.org/2000/svg">
<path d="M8.60153 3.49033C9.61836 3.4894 10.6126 3.79007 11.4585 4.35432C12.3045 4.91857 12.964 5.72103 13.3538 6.66019C13.7436 7.59936 13.846 8.63303 13.6482 9.63043C13.4504 10.6278 12.9612 11.5442 12.2425 12.2635C11.5239 12.9829 10.608 13.4729 9.61076 13.6716C8.61353 13.8703 7.57977 13.7688 6.64025 13.3799C5.70073 12.991 4.89766 12.3321 4.33264 11.4867C3.76762 10.6413 3.46604 9.64735 3.46604 8.63051C3.4722 7.26996 4.01509 5.96682 4.97672 5.00432C5.93834 4.04181 7.24099 3.49773 8.60153 3.49033ZM8.60153 2.52801C7.39457 2.52801 6.21471 2.88591 5.21116 3.55647C4.20761 4.22702 3.42544 5.1801 2.96355 6.29519C2.50167 7.41027 2.38082 8.63728 2.61628 9.82105C2.85175 11.0048 3.43296 12.0922 4.28641 12.9456C5.13986 13.7991 6.22722 14.3803 7.41099 14.6158C8.59476 14.8512 9.82177 14.7304 10.9369 14.2685C12.0519 13.8066 13.005 13.0244 13.6756 12.0209C14.3461 11.0173 14.704 9.83748 14.704 8.63051C14.704 7.01203 14.0611 5.45983 12.9167 4.31539C11.7722 3.17095 10.22 2.52801 8.60153 2.52801Z" fill="#ADC2C2"/>
<path d="M17.365 16.7469L13.9054 13.2638L13.2388 13.9257L16.6984 17.4088C16.7419 17.4526 16.7935 17.4874 16.8504 17.5112C16.9073 17.535 16.9684 17.5473 17.0301 17.5476C17.0917 17.5478 17.1529 17.5358 17.2099 17.5124C17.267 17.489 17.3189 17.4546 17.3627 17.4112C17.4064 17.3677 17.4412 17.316 17.465 17.2591C17.4888 17.2022 17.5012 17.1412 17.5014 17.0795C17.5016 17.0178 17.4897 16.9567 17.4663 16.8997C17.4429 16.8426 17.4085 16.7907 17.365 16.7469Z" fill="#ADC2C2"/>
</svg>
