<svg width="20" height="20" viewBox="0 0 20 20" fill="none" xmlns="http://www.w3.org/2000/svg">
<path d="M9.99984 18.3333C14.6022 18.3333 18.3332 14.6024 18.3332 10C18.3332 5.39763 14.6022 1.66667 9.99984 1.66667C5.39746 1.66667 1.6665 5.39763 1.6665 10C1.6665 14.6024 5.39746 18.3333 9.99984 18.3333Z" stroke="white" stroke-width="2" stroke-linecap="round" stroke-linejoin="round"/>
<path d="M9.99984 15C12.7613 15 14.9998 12.7614 14.9998 10C14.9998 7.23858 12.7613 5.00001 9.99984 5.00001C7.23841 5.00001 4.99984 7.23858 4.99984 10C4.99984 12.7614 7.23841 15 9.99984 15Z" stroke="white" stroke-width="2" stroke-linecap="round" stroke-linejoin="round"/>
<path d="M9.99984 11.6667C10.9203 11.6667 11.6665 10.9205 11.6665 10C11.6665 9.07953 10.9203 8.33334 9.99984 8.33334C9.07936 8.33334 8.33317 9.07953 8.33317 10C8.33317 10.9205 9.07936 11.6667 9.99984 11.6667Z" stroke="white" stroke-width="2" stroke-linecap="round" stroke-linejoin="round"/>
</svg>
