<svg width="25" height="25" viewBox="0 0 25 25" fill="none" xmlns="http://www.w3.org/2000/svg">
<path d="M22.273 16.0525C19.9178 17.5052 17.2052 18.2745 14.4381 18.2745C11.671 18.2745 8.95839 17.5052 6.60327 16.0525" stroke="#013C44" stroke-width="0.848914" stroke-linecap="round" stroke-linejoin="round"/>
<path d="M2.80305 7.96022C3.4027 7.96022 3.88881 7.47411 3.88881 6.87446C3.88881 6.27481 3.4027 5.7887 2.80305 5.7887C2.2034 5.7887 1.71729 6.27481 1.71729 6.87446C1.71729 7.47411 2.2034 7.96022 2.80305 7.96022Z" stroke="#5B7B83" stroke-width="0.823447" stroke-linecap="round" stroke-linejoin="round"/>
<path d="M2.80305 12.8462C3.4027 12.8462 3.88881 12.3601 3.88881 11.7604C3.88881 11.1608 3.4027 10.6747 2.80305 10.6747C2.2034 10.6747 1.71729 11.1608 1.71729 11.7604C1.71729 12.3601 2.2034 12.8462 2.80305 12.8462Z" stroke="#5B7B83" stroke-width="0.823447" stroke-linecap="round" stroke-linejoin="round"/>
<path d="M2.80305 17.7321C3.4027 17.7321 3.88881 17.246 3.88881 16.6463C3.88881 16.0467 3.4027 15.5605 2.80305 15.5605C2.2034 15.5605 1.71729 16.0467 1.71729 16.6463C1.71729 17.246 2.2034 17.7321 2.80305 17.7321Z" stroke="#5B7B83" stroke-width="0.823447" stroke-linecap="round" stroke-linejoin="round"/>
<path d="M6.60327 6.87451H22.346" stroke="#5B7B83" stroke-width="0.823447" stroke-linecap="round" stroke-linejoin="round"/>
<path d="M6.60327 11.7604H22.346" stroke="#5B7B83" stroke-width="0.823447" stroke-linecap="round" stroke-linejoin="round"/>
</svg>
