<svg width="33" height="33" viewBox="0 0 33 33" fill="none" xmlns="http://www.w3.org/2000/svg">
<path fill-rule="evenodd" clip-rule="evenodd" d="M16.7363 0.225586C7.89977 0.225586 0.736328 7.38903 0.736328 16.2256C0.736328 25.0621 7.89977 32.2256 16.7363 32.2256C25.5729 32.2256 32.7363 25.0621 32.7363 16.2256C32.7363 7.38903 25.5729 0.225586 16.7363 0.225586ZM16.2907 13.7842L16.2571 13.2306C16.1564 11.7957 17.0405 10.485 18.4395 9.97656C18.9543 9.79578 19.8273 9.77318 20.398 9.93137C20.6219 9.99916 21.0472 10.2251 21.3493 10.4285L21.8977 10.8014L22.5021 10.6093C22.8378 10.5076 23.2855 10.3381 23.4869 10.2251C23.6772 10.1234 23.8451 10.067 23.8451 10.1008C23.8451 10.2929 23.431 10.9482 23.084 11.3098C22.614 11.8182 22.7483 11.8634 23.6996 11.5245C24.2704 11.3324 24.2816 11.3324 24.1696 11.5471C24.1025 11.6601 23.7555 12.0555 23.3862 12.4171C22.7595 13.0385 22.7259 13.1063 22.7259 13.626C22.7259 14.4282 22.3454 16.1005 21.9649 17.0156C21.2598 18.7331 19.7489 20.5069 18.2381 21.3995C16.1116 22.6537 13.2801 22.9701 10.8963 22.2356C10.1017 21.9871 8.73633 21.3543 8.73633 21.2414C8.73633 21.2075 9.15042 21.1623 9.65405 21.151C10.7061 21.1284 11.7581 20.8346 12.6534 20.3149L13.2578 19.9533L12.5639 19.716C11.579 19.3771 10.6949 18.5975 10.471 17.8631C10.4039 17.6258 10.4263 17.6145 11.053 17.6145L11.7021 17.6032L11.1537 17.3433C10.5046 17.0156 9.91145 16.462 9.62047 15.8971C9.40783 15.4903 9.13923 14.4621 9.21757 14.3831C9.23995 14.3492 9.47498 14.4169 9.74358 14.5073C10.5158 14.7898 10.6165 14.722 10.1689 14.2475C9.32949 13.3888 9.07208 12.112 9.47498 10.9031L9.66524 10.3607L10.4039 11.0951C11.9148 12.5753 13.6942 13.4566 15.7311 13.7164L16.2907 13.7842Z" fill="#F2F8F9" fill-opacity="0.8"/>
</svg>
