<svg width="17" height="17" viewBox="0 0 17 17" fill="none" xmlns="http://www.w3.org/2000/svg">
<path fill-rule="evenodd" clip-rule="evenodd" d="M0.953674 16.032L3.9466 15.2468L4.23535 15.4182C5.44947 16.1387 6.84121 16.5199 8.2602 16.5205H8.2634C12.6219 16.5205 16.1693 12.973 16.171 8.61271C16.1719 6.49973 15.3501 4.51298 13.8571 3.01825C12.3641 1.52352 10.3787 0.699951 8.26651 0.699219C3.90463 0.699219 0.3572 4.24633 0.355469 8.60631C0.354857 10.1005 0.772931 11.5557 1.56451 12.8147L1.75253 13.1139L0.953674 16.032ZM12.731 10.6616C12.8968 10.7418 13.0087 10.7959 13.0565 10.8757C13.1159 10.9748 13.1159 11.4508 12.9179 12.0062C12.7198 12.5614 11.7701 13.0683 11.3133 13.1365C10.9037 13.1977 10.3854 13.2233 9.81598 13.0423C9.4707 12.9327 9.02793 12.7865 8.46076 12.5415C6.23212 11.5792 4.72603 9.41918 4.44138 9.01095C4.42145 8.98235 4.4075 8.96235 4.39972 8.95196L4.3978 8.9494C4.27201 8.78156 3.42903 7.65682 3.42903 6.49278C3.42903 5.39776 3.96692 4.8238 4.21451 4.5596C4.23148 4.5415 4.24708 4.52486 4.26105 4.5096C4.47895 4.2716 4.73651 4.2121 4.89498 4.2121C5.05344 4.2121 5.21209 4.21356 5.3506 4.22052C5.36769 4.22138 5.38547 4.22127 5.40385 4.22117C5.54238 4.22035 5.71509 4.21934 5.88547 4.6286C5.95102 4.7861 6.04692 5.01959 6.14808 5.26586C6.35264 5.76387 6.57865 6.31411 6.61842 6.39373C6.67786 6.51273 6.71747 6.6515 6.63824 6.81023C6.62634 6.83403 6.61534 6.85649 6.60483 6.87795C6.54531 6.99946 6.50153 7.08883 6.40052 7.20678C6.3608 7.25316 6.31974 7.30315 6.27869 7.35315C6.19691 7.45275 6.11513 7.55234 6.04392 7.62328C5.92491 7.74182 5.80102 7.87043 5.9397 8.10843C6.07837 8.34643 6.55547 9.12487 7.26218 9.75525C8.02186 10.4329 8.68213 10.7193 9.0168 10.8644C9.08216 10.8928 9.13509 10.9157 9.17393 10.9352C9.41157 11.0542 9.55025 11.0343 9.68893 10.8757C9.82761 10.717 10.2832 10.1815 10.4416 9.94355C10.6001 9.70564 10.7586 9.74526 10.9765 9.82456C11.1945 9.90397 12.3632 10.479 12.6009 10.598C12.6474 10.6212 12.6907 10.6422 12.731 10.6616Z" fill="#F2F8F9" fill-opacity="0.8"/>
</svg>
